<?xml version="1.0" encoding="UTF-8"?>
<svg width="197px" height="41px" viewBox="0 0 197 41" version="1.1" xmlns="http://www.w3.org/2000/svg" xmlns:xlink="http://www.w3.org/1999/xlink">
    <title>Logo/NexMuv/Blue</title>
    <g id="Homepage-v3.0" stroke="none" stroke-width="1" fill="none" fill-rule="evenodd">
        <g id="Animated-Quote-Form---Step-1" transform="translate(-149.000000, -15.000000)" fill="#2B72E6">
            <g id="Logo/NexMuv/Blue" transform="translate(149.961000, 15.598000)">
                <polyline id="Fill-1" points="81.1101488 31.3802063 76.7152193 31.3802063 65.4357925 16.132588 65.4357925 31.3802063 60.3527281 31.3802063 60.3527281 7.27974175 64.7145894 7.27974175 75.9940162 22.5604283 75.9940162 7.27974175 81.1101488 7.27974175 81.1101488 31.3802063"></polyline>
                <path d="M94.1610897,18.4284702 C93.1328242,18.4284702 92.3124163,18.7512794 91.7014408,19.3953232 C91.0888906,20.0409417 90.7282891,20.8330053 90.6196362,21.7730887 L97.6033383,21.7730887 C97.5812928,21.3132824 97.4836627,20.8818203 97.3088733,20.4771278 C97.1340839,20.0740099 96.8994567,19.7181324 96.6034171,19.4126447 C96.3089521,19.1055822 95.9530746,18.866231 95.5373593,18.6914416 C95.1232186,18.5150776 94.6634123,18.4284702 94.1610897,18.4284702 Z M94.7515944,28.0355877 C95.4948429,28.0355877 96.1987245,27.8938666 96.8663885,27.6104244 C97.5324778,27.3254074 98.1182584,26.8892213 98.6205811,26.2987166 L101.768365,28.5945989 C100.872372,29.6433352 99.8220613,30.424376 98.6205811,30.9377214 C97.4175262,31.4526415 96.0963704,31.7093142 94.6523896,31.7093142 C93.3186363,31.7093142 92.1171561,31.4951579 91.0447996,31.0699945 C89.9740178,30.6432564 89.0622786,30.0527518 88.3080072,29.2984804 C87.5537359,28.5442091 86.974254,27.6545154 86.5695615,26.6262499 C86.1648689,25.5995591 85.96331,24.4941343 85.96331,23.3146996 C85.96331,22.1557358 86.1538462,21.0629084 86.5364932,20.0346429 C86.9191402,19.0079521 87.4608299,18.1166837 88.1599874,17.3624124 C88.8591449,16.6081411 89.7173451,16.0129124 90.7345878,15.5751516 C91.7502559,15.1389654 92.8824502,14.920085 94.1280214,14.920085 C95.3295016,14.920085 96.4286277,15.1389654 97.4238249,15.5751516 C98.4174474,16.0129124 99.2709235,16.6034171 99.9811039,17.3466656 C100.691284,18.0899142 101.243997,18.9528384 101.637666,19.9370128 C102.031336,20.9211873 102.226596,21.9699236 102.226596,23.0847965 C102.226596,23.4343752 102.221872,23.7304149 102.21085,23.9697662 C102.199827,24.2106921 102.18408,24.407527 102.162034,24.5602708 L90.586568,24.5602708 C90.6731753,25.6090072 91.1062121,26.4514605 91.8825289,27.0860562 C92.6572711,27.7190772 93.614676,28.0355877 94.7515944,28.0355877 L94.7515944,28.0355877 Z" id="Fill-2"></path>
                <polyline id="Fill-3" points="116.68845 22.9855917 122.623415 31.3802063 117.343516 31.3802063 113.901268 26.13495 110.425951 31.3802063 105.17912 31.3802063 111.114086 23.0186599 105.769624 15.21455 110.950319 15.21455 113.901268 19.9370128 116.885285 15.21455 122.065979 15.21455 116.68845 22.9855917"></polyline>
                <polyline id="Fill-4" points="153.84143 31.3802063 148.725297 31.3802063 148.725297 17.2143926 141.609322 28.4623258 139.510275 28.4623258 132.362806 17.1498307 132.362806 31.3802063 127.279742 31.3802063 127.279742 7.27974175 131.575466 7.27974175 140.560586 21.6093221 149.54413 7.27974175 153.84143 7.27974175 153.84143 31.3802063"></polyline>
                <path d="M170.432249,15.21455 L174.990946,15.21455 L174.990946,31.3802063 L172.006929,31.3802063 L171.285726,29.5110621 C170.847965,30.081096 170.214944,30.5881427 169.383513,31.0369262 C168.552083,31.4841351 167.591528,31.7093142 166.498701,31.7093142 C164.289426,31.7093142 162.62814,31.0432249 161.513267,29.7094717 C160.398394,28.3757184 159.840957,26.5931816 159.840957,24.3634359 L159.840957,15.21455 L164.431147,15.21455 L164.431147,24.1004645 C164.431147,25.2153374 164.667349,26.0577907 165.136603,26.6262499 C165.607432,27.1947091 166.366428,27.4781513 167.416739,27.4781513 C168.312731,27.4781513 169.044957,27.1994331 169.613416,26.6419967 C170.181875,26.0845603 170.454295,25.2924967 170.432249,24.2658058 L170.432249,15.21455" id="Fill-5"></path>
                <polyline id="Fill-6" points="178.368632 15.21455 183.221794 15.21455 186.860877 24.8232423 190.534604 15.21455 195.321628 15.21455 188.500118 31.3802063 185.188568 31.3802063 178.368632 15.21455"></polyline>
                <polyline id="Fill-7" points="37.9954334 0 31.3707582 6.62467522 31.3707582 33.3375325 38.0316511 40 38.1418786 40 38.1418786 0 37.9954334 0"></polyline>
                <polyline id="Fill-8" points="0 39.8000157 6.4372884 33.3627273 6.4372884 6.48767814 0 0.0519644123 0 39.8000157"></polyline>
                <polyline id="Fill-9" points="10.1582553 30.5440516 16.7404141 23.9603181 16.7404141 15.8963861 10.1582553 9.31422723 10.1582553 30.5440516"></polyline>
                <polyline id="Fill-10" points="20.799937 15.7263208 20.799937 23.990237 27.3946933 30.5849933 27.3946933 9.2937564 20.8818203 15.8066294 20.799937 15.7263208"></polyline>
            </g>
        </g>
    </g>
</svg>